<?xml version="1.0" encoding="UTF-8"?>
<!DOCTYPE svg PUBLIC "-//W3C//DTD SVG 1.1//EN" "http://www.w3.org/Graphics/SVG/1.1/DTD/svg11.dtd">
<svg xmlns="http://www.w3.org/2000/svg" version="1.1" width="128px" height="128px" style="shape-rendering:geometricPrecision; text-rendering:geometricPrecision; image-rendering:optimizeQuality; fill-rule:evenodd; clip-rule:evenodd" xmlns:xlink="http://www.w3.org/1999/xlink">
<g><path style="opacity:1" fill="#959595" d="M -0.5,-0.5 C 42.1667,-0.5 84.8333,-0.5 127.5,-0.5C 127.5,42.1667 127.5,84.8333 127.5,127.5C 84.8333,127.5 42.1667,127.5 -0.5,127.5C -0.5,84.8333 -0.5,42.1667 -0.5,-0.5 Z"/></g>
<g><path style="opacity:1" fill="#f5f5f5" d="M 33.5,45.5 C 38.7009,45.3535 43.2009,47.0202 47,50.5C 48.0798,53.2371 47.2464,54.9037 44.5,55.5C 41.713,54.3559 38.8797,53.3559 36,52.5C 32.451,53.0219 29.6176,54.6886 27.5,57.5C 21.0648,58.9113 19.5648,56.9113 23,51.5C 26.0688,48.5545 29.5688,46.5545 33.5,45.5 Z"/></g>
<g><path style="opacity:1" fill="#f4f4f4" d="M 86.5,45.5 C 95.1801,44.9864 101.513,48.4864 105.5,56C 104.663,57.587 103.33,58.4204 101.5,58.5C 98.1952,55.5966 94.3619,53.5966 90,52.5C 87.1938,53.2411 84.5271,54.2411 82,55.5C 79.1985,54.8954 78.1985,53.2287 79,50.5C 81.4795,48.6859 83.9795,47.0192 86.5,45.5 Z"/></g>
<g><path style="opacity:1" fill="#f6f6f6" d="M 85.5,74.5 C 89.1915,74.3636 91.0248,76.0302 91,79.5C 78.5637,91.7297 64.0637,94.8964 47.5,89C 42.0627,87.0579 38.0627,83.5579 35.5,78.5C 35.6082,77.5581 35.9415,76.7247 36.5,76C 40.4799,74.9518 43.4799,76.2851 45.5,80C 55.4525,86.5356 65.7859,87.2023 76.5,82C 80.2748,80.3886 83.2748,77.8886 85.5,74.5 Z"/></g>
</svg>
